<svg xmlns="http://www.w3.org/2000/svg" xmlns:xlink="http://www.w3.org/1999/xlink" width="360" height="162" viewBox="0 0 360 162">
  <defs>
    <linearGradient id="linear-gradient" x1="0.5" x2="0.5" y2="1" gradientUnits="objectBoundingBox">
      <stop offset="0" stop-color="#8ae7ab"/>
      <stop offset="1" stop-color="#00d9b0"/>
    </linearGradient>
    <filter id="패스_274" x="0" y="0" width="360" height="162" filterUnits="userSpaceOnUse">
      <feOffset dy="3" input="SourceAlpha"/>
      <feGaussianBlur stdDeviation="3" result="blur"/>
      <feFlood flood-color="#fff" flood-opacity="0.161"/>
      <feComposite operator="in" in2="blur"/>
      <feComposite in="SourceGraphic"/>
    </filter>
    <filter id="패스_280" x="0" y="0" width="360" height="162" filterUnits="userSpaceOnUse">
      <feOffset dy="3" input="SourceAlpha"/>
      <feGaussianBlur stdDeviation="3" result="blur-2"/>
      <feFlood flood-color="#fff" flood-opacity="0.161"/>
      <feComposite operator="in" in2="blur-2"/>
      <feComposite in="SourceGraphic"/>
    </filter>
    <filter id="사각형_987" x="0" y="0" width="360" height="162" filterUnits="userSpaceOnUse">
      <feOffset dy="3" input="SourceAlpha"/>
      <feGaussianBlur stdDeviation="3" result="blur-3"/>
      <feFlood flood-opacity="0.161"/>
      <feComposite operator="in" in2="blur-3"/>
      <feComposite in="SourceGraphic"/>
    </filter>
    <clipPath id="clip-path">
      <g transform="matrix(1, 0, 0, 1, 0, 0)" filter="url(#패스_274)">
        <path id="패스_274-2" data-name="패스 274" d="M12,0H330a12,12,0,0,1,12,12V132a12,12,0,0,1-12,12H12A12,12,0,0,1,0,132V12A12,12,0,0,1,12,0Z" transform="translate(16 454)" fill="url(#linear-gradient)"/>
      </g>
    </clipPath>
    <clipPath id="clip-path-2">
      <g transform="matrix(1, 0, 0, 1, 0, 0)" filter="url(#패스_280)">
        <path id="패스_280-2" data-name="패스 280" d="M330,0H12A12,12,0,0,0,0,12V132a12,12,0,0,0,12,12H330a12,12,0,0,0,12-12V12A12,12,0,0,0,330,0Z" opacity="0.081" fill="url(#linear-gradient)"/>
      </g>
    </clipPath>
    <linearGradient id="linear-gradient-4" x1="0.5" x2="0.5" y2="4.366" gradientUnits="objectBoundingBox">
      <stop offset="0" stop-color="#28ddae"/>
      <stop offset="0" stop-color="#3adead"/>
      <stop offset="1" stop-color="#00d9b0"/>
    </linearGradient>
    <filter id="패스_258" x="87" y="83.6" width="186.152" height="27.323" filterUnits="userSpaceOnUse">
      <feOffset dy="3" input="SourceAlpha"/>
      <feGaussianBlur stdDeviation="3" result="blur-4"/>
      <feFlood flood-opacity="0.161"/>
      <feComposite operator="in" in2="blur-4"/>
      <feComposite in="SourceGraphic"/>
    </filter>
    <linearGradient id="linear-gradient-5" x1="0.5" x2="0.5" y2="1" gradientUnits="objectBoundingBox">
      <stop offset="0" stop-color="#02ffcf"/>
      <stop offset="1" stop-color="#fff" stop-opacity="0"/>
    </linearGradient>
    <filter id="내역" x="14" y="7" width="66" height="50" filterUnits="userSpaceOnUse">
      <feOffset dy="3" input="SourceAlpha"/>
      <feGaussianBlur stdDeviation="3" result="blur-5"/>
      <feFlood flood-opacity="0.161"/>
      <feComposite operator="in" in2="blur-5"/>
      <feComposite in="SourceGraphic"/>
    </filter>
  </defs>
  <g id="그룹_263" data-name="그룹 263" transform="translate(-7 -448)">
    <g transform="matrix(1, 0, 0, 1, 7, 448)" filter="url(#사각형_987)">
      <rect id="사각형_987-2" data-name="사각형 987" width="342" height="144" rx="12" transform="translate(9 6)" fill="url(#linear-gradient)"/>
    </g>
    <g id="마스크_그룹_3" data-name="마스크 그룹 3" clip-path="url(#clip-path)">
      <g id="그룹_259" data-name="그룹 259" transform="translate(-605.962 -324.958) rotate(30)" opacity="0.8">
        <circle id="타원_275" data-name="타원 275" cx="38.092" cy="38.092" r="38.092" transform="translate(984.419 368.798)" fill="#8ae7ab"/>
        <circle id="타원_276" data-name="타원 276" cx="46.688" cy="46.688" r="46.688" transform="translate(975.732 411.109)" fill="#8ae7ab"/>
        <path id="패스_273" data-name="패스 273" d="M1007.91,536.188h-6.043l2.953-158.228h1.122Z" transform="translate(14.601 5.118)" fill="#6ec29e"/>
        <line id="선_84" data-name="선 84" y1="30.545" x2="30.545" transform="translate(1019.489 453.001)" fill="none" stroke="#6ec29e" stroke-linecap="round" stroke-miterlimit="10" stroke-width="2.5"/>
        <line id="선_85" data-name="선 85" y1="19.007" x2="19.007" transform="translate(1019.489 431.522)" fill="none" stroke="#6ec29e" stroke-linecap="round" stroke-miterlimit="10" stroke-width="2.5"/>
        <path id="패스_277" data-name="패스 277" d="M.476,13.311,13.586,0" transform="translate(1019.489 408.298)" fill="none" stroke="#6ec29e" stroke-linecap="round" stroke-width="2.5"/>
        <line id="선_87" data-name="선 87" x1="30.545" y1="30.545" transform="translate(988.345 459.794)" fill="none" stroke="#6ec29e" stroke-linecap="round" stroke-miterlimit="10" stroke-width="2.5"/>
        <line id="선_88" data-name="선 88" x1="19.007" y1="19.007" transform="translate(999.883 438.315)" fill="none" stroke="#6ec29e" stroke-linecap="round" stroke-miterlimit="10" stroke-width="2.5"/>
        <line id="선_89" data-name="선 89" x1="13.586" y1="13.586" transform="translate(1005.304 415.091)" fill="none" stroke="#6ec29e" stroke-linecap="round" stroke-miterlimit="10" stroke-width="2.5"/>
      </g>
    </g>
    <g id="마스크_그룹_4" data-name="마스크 그룹 4" transform="translate(16 454)" opacity="0.694" clip-path="url(#clip-path-2)">
      <g id="그룹_260" data-name="그룹 260" transform="translate(388.464 181.615) rotate(150)" opacity="0.8">
        <circle id="타원_277" data-name="타원 277" cx="32.101" cy="32.101" r="32.101" transform="translate(7.321 81.175)" fill="#8ae7ab"/>
        <circle id="타원_278" data-name="타원 278" cx="39.345" cy="39.345" r="39.345" transform="translate(0 31.03)" fill="#8ae7ab"/>
        <path id="패스_278" data-name="패스 278" d="M5.093,0H0L2.489,133.342h.945Z" transform="translate(34.329 0)" fill="#6ec29e"/>
        <line id="선_90" data-name="선 90" x2="25.741" y2="25.741" transform="translate(36.876 48.676)" fill="none" stroke="#6ec29e" stroke-linecap="round" stroke-miterlimit="10" stroke-width="2.5"/>
        <line id="선_91" data-name="선 91" x2="16.018" y2="16.018" transform="translate(36.876 76.5)" fill="none" stroke="#6ec29e" stroke-linecap="round" stroke-miterlimit="10" stroke-width="2.5"/>
        <path id="패스_279" data-name="패스 279" d="M0,0,11.048,11.217" transform="translate(37.277 100.871)" fill="none" stroke="#6ec29e" stroke-linecap="round" stroke-width="2.5"/>
        <line id="선_92" data-name="선 92" x1="25.741" y2="25.741" transform="translate(10.63 42.951)" fill="none" stroke="#6ec29e" stroke-linecap="round" stroke-miterlimit="10" stroke-width="2.5"/>
        <line id="선_93" data-name="선 93" x1="16.018" y2="16.018" transform="translate(20.353 70.775)" fill="none" stroke="#6ec29e" stroke-linecap="round" stroke-miterlimit="10" stroke-width="2.5"/>
        <line id="선_94" data-name="선 94" x1="11.449" y2="11.449" transform="translate(24.921 94.915)" fill="none" stroke="#6ec29e" stroke-linecap="round" stroke-miterlimit="10" stroke-width="2.5"/>
      </g>
    </g>
    <text id="자세히_보기" data-name="자세히 보기" transform="translate(280 583)" fill="#fff" font-size="14" font-family="MalgunGothicBold, Malgun Gothic" letter-spacing="-0.025em"><tspan x="0" y="0">자세히</tspan><tspan y="0" font-family="SegoeUI-Bold, Segoe UI" font-weight="700"> </tspan><tspan y="0">보기</tspan></text>
    <g id="그룹_250" data-name="그룹 250" transform="translate(38 12.111)">
      <g transform="matrix(1, 0, 0, 1, -31, 435.89)" filter="url(#패스_258)">
        <path id="패스_258-2" data-name="패스 258" d="M0,0H168.152V9.324H0Z" transform="translate(96 89.6)" fill="url(#linear-gradient-4)"/>
      </g>
      <g id="그룹_249" data-name="그룹 249" transform="translate(65 481.889)">
        <rect id="사각형_1009" data-name="사각형 1009" width="20.99" height="11.02" transform="translate(0 41.98)" fill="url(#linear-gradient-5)"/>
        <rect id="사각형_1010" data-name="사각형 1010" width="20.99" height="26.238" transform="translate(20.99 26.762)" fill="url(#linear-gradient-5)"/>
        <rect id="사각형_1011" data-name="사각형 1011" width="20.99" height="20.99" transform="translate(41.98 32.01)" fill="url(#linear-gradient-5)"/>
        <rect id="사각형_1012" data-name="사각형 1012" width="20.99" height="44.604" transform="translate(62.97 8.396)" fill="url(#linear-gradient-5)"/>
        <rect id="사각형_1013" data-name="사각형 1013" width="20.99" height="53" transform="translate(83.96)" fill="url(#linear-gradient-5)"/>
        <rect id="사각형_1014" data-name="사각형 1014" width="20.99" height="41.455" transform="translate(104.95 11.545)" fill="url(#linear-gradient-5)"/>
        <rect id="사각형_1015" data-name="사각형 1015" width="20.99" height="26.762" transform="translate(125.94 26.238)" fill="url(#linear-gradient-5)"/>
        <rect id="사각형_1016" data-name="사각형 1016" width="20.99" height="16.267" transform="translate(146.93 36.733)" fill="url(#linear-gradient-5)"/>
      </g>
    </g>
    <g transform="matrix(1, 0, 0, 1, 7, 448)" filter="url(#내역)">
      <text id="내역-2" data-name="내역" transform="translate(23 39)" fill="#fff" font-size="24" font-family="MalgunGothicBold, Malgun Gothic" letter-spacing="-0.025em"><tspan x="0" y="0">내역</tspan></text>
    </g>
  </g>
</svg>
